<svg xmlns="http://www.w3.org/2000/svg" width="19" height="19" fill="none" viewBox="0 0 19 19"><path fill="url(#a)" d="M7.237 3.633c.028 0 .08.088.113.195.037.112.159.427.276.71.112.283.352.78.525 1.115.174.33.45.813.623 1.069.17.255.507.692.75.975.244.284.592.641.77.804s.553.469.839.678c.286.213.694.492.914.622s.675.357 1.008.51.791.34 1.021.41c.225.074.408.144.408.158-.002.014-.208.093-.46.18-.248.089-.683.266-.97.391-.285.13-.745.371-1.03.538s-.718.451-.961.637c-.244.181-.671.548-.943.813s-.637.659-.81.877c-.178.219-.45.595-.615.836-.16.242-.408.66-.553.93s-.389.808-.543 1.193c-.16.39-.286.743-.287.78 0 .038-.028.07-.061.07-.029-.003-.146-.247-.258-.543a17 17 0 0 0-.548-1.245 14 14 0 0 0-.637-1.138c-.155-.241-.45-.641-.647-.883a14 14 0 0 0-.802-.877 12 12 0 0 0-.82-.725 12 12 0 0 0-.844-.58 13 13 0 0 0-1.125-.609c-.36-.167-.863-.38-1.111-.464-.252-.088-.457-.167-.459-.181 0-.014.216-.098.479-.187.267-.088.81-.32 1.209-.52.398-.194.937-.496 1.195-.668s.628-.437.82-.595c.192-.153.506-.441.703-.632.192-.19.502-.525.685-.743s.483-.612.66-.882c.18-.269.45-.739.61-1.046.154-.306.38-.785.496-1.068.117-.283.24-.598.268-.705v-.005c.033-.107.084-.195.112-.195"/><path fill="url(#b)" d="M14.662 0c.015 0 .041.047.059.103a7.96 7.96 0 0 0 .42.955c.09.172.235.425.326.558.088.134.265.363.392.51.128.15.31.336.403.42a6.583 6.583 0 0 0 .917.68c.115.07.353.189.527.27.174.08.415.177.535.213.118.039.213.076.213.083-.003.008-.11.05-.24.095-.13.046-.358.138-.508.204a5.98 5.98 0 0 0-1.042.614c-.128.095-.35.287-.493.426a6 6 0 0 0-.425.459 8 8 0 0 0-.321.437 8 8 0 0 0-.29.487 7.6 7.6 0 0 0-.434 1.033c0 .02-.014.036-.031.036-.015 0-.077-.129-.136-.284a7.049 7.049 0 0 0-.62-1.247 6 6 0 0 0-.339-.462 7 7 0 0 0-.419-.46 6 6 0 0 0-.43-.378 6 6 0 0 0-.44-.304 7 7 0 0 0-.59-.318 8 8 0 0 0-.58-.243 1.6 1.6 0 0 1-.241-.095c0-.007.113-.051.25-.098a6.75 6.75 0 0 0 1.259-.622c.135-.09.328-.229.429-.311.1-.08.265-.23.368-.33.1-.1.262-.275.358-.389s.252-.32.346-.462c.093-.14.235-.386.318-.547.081-.16.2-.411.26-.56.062-.148.126-.313.14-.369V.103c.018-.056.044-.103.06-.103"/><defs><linearGradient id="a" x1="7.242" x2="7.242" y1="18.124" y2="3.633" gradientUnits="userSpaceOnUse"><stop stop-color="#eace4c"/><stop offset="1" stop-color="#fffbe2"/></linearGradient><linearGradient id="b" x1="14.665" x2="14.665" y1="7.583" y2="0" gradientUnits="userSpaceOnUse"><stop stop-color="#eace4c"/><stop offset="1" stop-color="#fffbe2"/></linearGradient></defs></svg>